/* XPM */
static char * status_foot_xpm[] = {
"32 32 139 2",
"  	c #444444",
". 	c #5E5A60",
"+ 	c #6D6970",
"@ 	c #645D61",
"# 	c #987767",
"$ 	c #7A6863",
"% 	c #887067",
"& 	c #524C48",
"* 	c #706A70",
"= 	c #605A5F",
"- 	c #AE7E64",
"; 	c #AC6D55",
"> 	c #866159",
", 	c #956658",
"' 	c #C48762",
") 	c #A17A6A",
"! 	c #6B564D",
"~ 	c #8C6E63",
"{ 	c #A4674F",
"] 	c #896960",
"^ 	c #745C52",
"/ 	c #785D51",
"( 	c #C3744C",
"_ 	c #8D5945",
": 	c #856764",
"< 	c #8E5D4A",
"[ 	c #A98167",
"} 	c #E0A576",
"| 	c #E1A475",
"1 	c #E1A575",
"2 	c #D79E71",
"3 	c #8B7670",
"4 	c #6A5E60",
"5 	c #BA8C6C",
"6 	c #E2A674",
"7 	c #E4A773",
"8 	c #E5A773",
"9 	c #E5A772",
"0 	c #A9826B",
"a 	c #826B62",
"b 	c #E3A775",
"c 	c #E5A774",
"d 	c #A7826C",
"e 	c #796152",
"f 	c #E3A776",
"g 	c #E5A673",
"h 	c #CF976F",
"i 	c #615A5F",
"j 	c #877169",
"k 	c #DD915E",
"l 	c #DC8C5A",
"m 	c #93705B",
"n 	c #8B756D",
"o 	c #E4A675",
"p 	c #E6A571",
"q 	c #E5A470",
"r 	c #6E5C53",
"s 	c #846E64",
"t 	c #E5A672",
"u 	c #7E6758",
"v 	c #E2A775",
"w 	c #C9976E",
"x 	c #70696F",
"y 	c #BF906A",
"z 	c #CB9369",
"A 	c #8F7468",
"B 	c #DBA275",
"C 	c #E3A676",
"D 	c #DB9162",
"E 	c #DB8D5D",
"F 	c #9A6A5A",
"G 	c #6F6363",
"H 	c #7D6A64",
"I 	c #937266",
"J 	c #7B6156",
"K 	c #A97F6B",
"L 	c #7E7070",
"M 	c #5F5A60",
"N 	c #544C48",
"O 	c #72686B",
"P 	c #65585A",
"Q 	c #66585A",
"R 	c #5F595F",
"S 	c #9F705E",
"T 	c #C78259",
"U 	c #946557",
"V 	c #7F584C",
"W 	c #AE715B",
"X 	c #B07A5C",
"Y 	c #60595E",
"Z 	c #8A5F55",
"` 	c #C57C55",
" .	c #8A6D5D",
"..	c #896D5D",
"+.	c #8B6E5D",
"@.	c #99644E",
"#.	c #957162",
"$.	c #7C635C",
"%.	c #886C59",
"&.	c #DCA272",
"*.	c #BF9273",
"=.	c #90614D",
"-.	c #725146",
";.	c #AD8773",
">.	c #C79570",
",.	c #5D514C",
"'.	c #A18171",
").	c #E2A473",
"!.	c #464545",
"~.	c #CD9871",
"{.	c #E6A673",
"].	c #8A6F68",
"^.	c #DB8B58",
"/.	c #DD8F5C",
"(.	c #88726A",
"_.	c #7B6A66",
":.	c #E5A671",
"<.	c #E5A771",
"[.	c #E5A675",
"}.	c #846D63",
"|.	c #96796A",
"1.	c #E4A772",
"2.	c #E3A773",
"3.	c #CC986E",
"4.	c #DFA675",
"5.	c #7F6960",
"6.	c #C98D65",
"7.	c #B98B69",
"8.	c #454545",
"9.	c #8E6C65",
"0.	c #CB7F56",
"a.	c #CB845A",
"b.	c #D49C73",
"c.	c #CB9973",
"d.	c #7C6965",
"e.	c #5E585E",
"f.	c #5E585D",
"g.	c #5E595E",
"h.	c #5E595F",
"    . . .           . . .           . . .           . . .       ",
"+ +       + + + + +       + + + + +       + + + + +       + + + ",
". . .   + + . @ # $ % & * + . . . . .   + + . . . . .   + + . . ",
". . .   + . = - ; > , ' ) . . . . . .   + . . . . . .   + . . . ",
".         ! ~ { ] ^ / ( _   . . .           . . .           . . ",
"  + + + + : < [ } | 1 2 3 +       + + + + +       + + + + +     ",
"+ + . . . 4 5 6 7 8 8 9 0 . .   + + . . . . .   + + . . . . .   ",
"+ . . . . a b 8 8 8 8 c d . .   + . . . . . .   + . . . . . .   ",
"    . . . e f 8 8 8 g h i           . . .           . . .       ",
"+ +       j f 8 8 k l m   + + + + +       + + + + +       + + + ",
". . .   + n o 9 8 p q r + + . . . . .   + + . . . . .   + + . . ",
". . .   + s 7 8 8 8 t u + . . . . . .   + . . . . . .   + . . . ",
".         e v 8 8 8 8 w     . . .           . . .           . . ",
"  + + + + x y 8 8 8 9 z + +       + + + + +       + + + + +     ",
"+ + . . . . A B C D E F . . .   + + . . G H I J K L M . . . .   ",
"+ . . . . . . N O P Q R . . .   + . . . S T U V W X Y . . . .   ",
"    . . .           . . .           . . Z `  ...+.@.#.$..       ",
"+ +       + + + + +       + + + + +     %.&.8 g c *.=.-.  + + + ",
". . .   + + . . . . .   + + . . . . .   ;.9 8 8 7 7 >.,.+ + . . ",
". . .   + . . . . . .   + . . . . . .   '.).8 8 8 8 b e + . . . ",
".           . . .           . . .       !.~.{.8 8 8 f e     . . ",
"  + + + + +       + + + + +       + + + + ].^./.8 8 b (.+ +     ",
"+ + . . . . .   + + . . . . .   + + . . . _.:.8 8 <.[.}.. . .   ",
"+ . . . . . .   + . . . . . .   + . . . . |.1.8 8 8 2.}.. . .   ",
"    . . .           . . .           . . . 3.8 8 8 8 4.5..       ",
"+ +       + + + + +       + + + + +       6.:.8 8 8 7.8.  + + + ",
". . .   + + . . . . .   + + . . . . .   + 9.0.a.b.c.d.  + + . . ",
". . .   + . . . . . .   + . . . . . .   + . e.f.g.h..   + . . . ",
".           . . .           . . .           . . .           . . ",
"  + + + + +       + + + + +       + + + + +       + + + + +     ",
"+ + . . . . .   + + . . . . .   + + . . . . .   + + . . . . .   ",
"+ . . . . . .   + . . . . . .   + . . . . . .   + . . . . . .   "};
