/* XPM */
static char * status_coin_xpm[] = {
"32 32 37 1",
" 	c #444444",
".	c #5E5A60",
"+	c #6D6970",
"@	c #AD8100",
"#	c #FFD500",
"$	c #E7AE13",
"%	c #CA9911",
"&	c #424242",
"*	c #5F5B61",
"=	c #74570A",
"-	c #4F4C51",
";	c #8C6706",
">	c #393939",
",	c #5B575D",
"'	c #5D595F",
")	c #5D5A60",
"!	c #3E3E3E",
"~	c #504D52",
"{	c #514E53",
"]	c #555257",
"^	c #504C51",
"/	c #545056",
"(	c #565257",
"_	c #59555B",
":	c #575358",
"<	c #3D3D3D",
"[	c #3F3F3F",
"}	c #68646B",
"|	c #635F65",
"1	c #524E54",
"2	c #545156",
"3	c #636066",
"4	c #5A565C",
"5	c #5C585E",
"6	c #646067",
"7	c #6C686F",
"8	c #5B585D",
"  ...     ...     ...     ...   ",
"++   +++++   +++++   +++++   +++",
"... ++..... ++..... ++..... ++..",
"... +...... +...... +...... +...",
".     ...     ...     ...     ..",
" +++++   +++++   +++++   +++++  ",
"++..... ++..... ++..... ++..... ",
"+...... +...... +...... +...... ",
"  ...     ...  @@@@..     ...   ",
"++   +++++   +@#$$%@ +++++   +++",
"... ++..... +@#$@@$%@+..... ++..",
"... +...... +@#@$$@%@...... +...",
".     @@@@&&&@#$%%#%@@@@.     ..",
" ++++@#$$%@**=%###$@#$$%@+++++  ",
"++..@#$@@$%@-@;%%%@#$@@$%@..... ",
"+...@#@$$@%@-=%;;;@#@$$@%@..... ",
"  ..@#$%%#%@->=%%%@#$%%#%@,..   ",
"++  =%###$@=>')====%###$@=!  +++",
"... +=%%%@=>@@@@~{@;%%%@;@] ++..",
"... +.====^@#$$%@/=%;;;;@=( +...",
".     ._:<@#$@@$%@@;%%%@;@[   ..",
" +++++   +@#@$$@%@=%;;;;@=}+++  ",
"++..... ++@#$%%#%@{=%%%@=|..... ",
"+...... +.=%###$@=12====3'..... ",
"  ...     .=%%%@=<4'5[[&  ...   ",
"++   +++++  ====67   +++++   +++",
"... ++..... +748... ++..... ++..",
"... +...... +...... +...... +...",
".     ...     ...     ...     ..",
" +++++   +++++   +++++   +++++  ",
"++..... ++..... ++..... ++..... ",
"+...... +...... +...... +...... "};
