/* XPM */
static char * enemy_back_xpm[] = {
"32 32 16 1",
" 	c None",
".	c #343B00",
"+	c #525F02",
"@	c #81850B",
"#	c #93AC3E",
"$	c #A1C563",
"%	c #979799",
"&	c #FFFFFF",
"*	c #D2D2D6",
"=	c #433C2F",
"-	c #685F41",
";	c #887F61",
">	c #222200",
",	c #4E4D05",
"'	c #605F30",
")	c #737261",
"                                ",
"                                ",
"                                ",
"            .......             ",
"          ..++@@@++..           ",
"         .+@@#####@@+.          ",
"        .+@##$$$$$##@+.     %   ",
"        .@##$$$$$$$##@.    %&%  ",
"       .+@#$$$$$$$$$#@+.   %&%  ",
"   ..  .@##$$$$$$$$$##@.  ..&%  ",
"  .@#+..@##$$$$$$$$$##@..+#@.%  ",
"   .@#@.@##$$$$$$$$$##@.@#@.*%  ",
"    .##.@###$$$$$$$###@.##.**%  ",
"     .+.@@###$$$$$###@@.+.=*%   ",
"      ..+@###########@+.. ===   ",
"       .+@@#########@@+. =--=   ",
"        .+@@@#####@@@+.  =-=    ",
"        ..+@@@@@@@@@+..  =-=    ",
"       .++.++@@@@@++.++. =-=    ",
"      .+$##$#######$##$+.=;=    ",
"      .$#@$$$$$$$$$$$@#$.-;=    ",
"     .+#@.#$$##$##$$#.@#+.-     ",
"     .##+.@@#$$$$$#@@.+##.=     ",
"    .+$@..@#$$$$$$$#@..@$+.     ",
"    .$$+..@#$$$#$$$#@..+$$.     ",
"    .$#. >,')))))))',> =-$.     ",
"     ..  >,))'','')),> -;=      ",
"          ,)),>>>,)),  -;=      ",
"          .@@@. .@@@.  =-=      ",
"          .#$#. .#$#.  ==       ",
"          .$$#. .#$$.           ",
"           ...   ...            "};
