/* XPM */
static char * enemy_left_xpm[] = {
"32 32 19 1",
" 	c None",
".	c #343B00",
"+	c #979799",
"@	c #525F02",
"#	c #81850B",
"$	c #D2D2D6",
"%	c #93AC3E",
"&	c #A1C563",
"*	c #9D894E",
"=	c #640A0E",
"-	c #971E2A",
";	c #E53A52",
">	c #FA6B73",
",	c #9FA457",
"'	c #433C2F",
")	c #685F41",
"!	c #222200",
"~	c #4E4D05",
"{	c #605F30",
"                                ",
"                                ",
"             .......            ",
"        +  ..@@###@@..          ",
"       +$+.@##%%%%%##@.         ",
"       +$.@#%%%%%%%%%#@.        ",
"       +$.#%%&&&&&&%%%#.        ",
"       +.@%%&&&&&&&&%%#@.       ",
"       +.#%&&&&&&&&&&%%#.       ",
"       +.%%&&&&&&&&&&%%#.       ",
"       +.%&&&&&&&&&&%..#.       ",
"        .%&&&&&&&&&.@&&..       ",
"        .%&&&&*=&&.%&#%..       ",
"        .%&&*---&&%&@%.@.       ",
"        .#&-;>;-&&&@%.#@.       ",
"        .@%,-;-&&&%#.@@.        ",
"         .#%&&&&&%##@@.         ",
"         '.@##%%%##@@.          ",
"         ')..........           ",
"          '.#%&&%%#@.           ",
"          '.%&&&&&&#.           ",
"          '.#&&&.&&%.           ",
"           .@@#.%%%#.           ",
"           .@&.&&&%@.           ",
"           !~{.&&%#.            ",
"           !~{.#%#.~!           ",
"          .@!~{...~~.           ",
"          .@@@..#%&&%.          ",
"           ...  .&&&%.          ",
"                 ....           ",
"                                ",
"                                "};
