/* XPM */
static char * enemy_right_xpm[] = {
"32 32 21 1",
" 	c None",
".	c #343B00",
"+	c #525F02",
"@	c #81850B",
"#	c #93AC3E",
"$	c #A1C563",
"%	c #979799",
"&	c #D2D2D6",
"*	c #640A0E",
"=	c #9D894E",
"-	c #FFFFFF",
";	c #971E2A",
">	c #E53A52",
",	c #FA6B73",
"'	c #433C2F",
")	c #887F61",
"!	c #685F41",
"~	c #737261",
"{	c #605F30",
"]	c #4E4D05",
"^	c #222200",
"                                ",
"                                ",
"             .......            ",
"           ..++@@@++..          ",
"          .+@@#####@@+.         ",
"         .+@#########@+.        ",
"         .@###$$$$$$##@.        ",
"        .+@##$$$$$$$$##+.       ",
"        .@##$$$$$$$$$$#@.       ",
"        .@##$$$$$$$$$$##.       ",
"        .@..#$$$$$$$$$$#. %     ",
"        ..$$+.$$$$$$$$$#.%&     ",
"        ..#@$#.$$*=$$$$#%-&     ",
"        .+.#+$#$$;;;=$$&--%     ",
"        .+@.#+$$$;>,>;&--&%     ",
"         .++.@#$$$;>;%--&%      ",
"          .++@@#$$$$%&-&&%      ",
"           .++@@###@'&&%%       ",
"            .......')!%         ",
"            .@###$')!'          ",
"           .@$$#$')!'.          ",
"           .@$$+')!'@.          ",
"           .##@')!'++.          ",
"           .#$'!!'$$+.          ",
"           .#$$!'~~{]^          ",
"           '@$$.~~~{]^          ",
"          '!!'.{~~{]^           ",
"         '!!'.+@#@.             ",
"         '!' .@#$#.             ",
"         ''  .@#$$.             ",
"              ....              ",
"                                "};
