/* XPM */
static char * enemy_front_xpm[] = {
"32 32 22 1",
" 	c None",
".	c #343B00",
"+	c #525F02",
"@	c #81850B",
"#	c #93AC3E",
"$	c #979799",
"%	c #FFFFFF",
"&	c #A1C563",
"*	c #D2D2D6",
"=	c #640A0E",
"-	c #9D894E",
";	c #433C2F",
">	c #971E2A",
",	c #685F41",
"'	c #E53A52",
")	c #FA6B73",
"!	c #887F61",
"~	c #9FA457",
"{	c #222200",
"]	c #4E4D05",
"^	c #605F30",
"/	c #737261",
"                                ",
"             .......            ",
"           ..++@@@++..          ",
"          .+@@#####@@+.         ",
"   $     .+@#########@+.        ",
"  $%$    .@###&&&&&###@.        ",
"  $%$   .+@##&&&&&&&##@+.       ",
"  *%*$  .@##&&&&&&&&&##@.  ..   ",
"  *%%$+..@#&&&&&&&&&&&#@..+#@.  ",
"  *%%$#@.@#&&&&&&&&&&&#@.@#@.   ",
"  $*%$+@.@#&&&&&&&&&&&#@.@+.    ",
"  $*%$.+.@=-&&&&&&&&&-=@.+.     ",
"   $*; ..+>>>-&&&&&->>>+..      ",
"   ;,;  .+>')'>&&&>')'>+.       ",
"   ;!,;  .@>'>~&&&~>'>@.        ",
"    ,!;  ..@#&&&&&&&#@..        ",
"    ;!; .++.+@#####@+.++.       ",
"    ;!;.+&#@.........@#&+.      ",
"    ;!;.&#@#&&&###&&&#@#&.      ",
"    ;!,;#@.#&&&&#&&&&#.@#+.     ",
"     ,!;#+.@#&&@@@&&#@.+##.     ",
"     ;!;@..+@@@#&#@@@+..@&+.    ",
"     .&&+..@###&&&###@..+&&.    ",
"     .&#. {]^/^///^/^]{ .#&.    ",
"      ..; {]//]^^^]//]{  ..     ",
"      ;,;  ]//^{{{^//]          ",
"      ;,;  .@@@. .@@@.          ",
"      ;,;  .#&#. .#&#.          ",
"       ;;  .&&#. .#&&.          ",
"            ...   ...           ",
"                                ",
"                                "};
