/* XPM */
static char * hero_back_xpm[] = {
"32 32 20 1",
" 	c #ACD62A",
".	c #A5CE2A",
"+	c #B9E236",
"@	c #4D3B39",
"#	c #705654",
"$	c #B3DD35",
"%	c #8F7772",
"&	c #B7A099",
"*	c #9FC529",
"=	c #534721",
"-	c #D7906E",
";	c #323234",
">	c #545456",
",	c #979799",
"'	c #B7B7BB",
")	c #767678",
"!	c #D9D9DD",
"~	c #3560BD",
"{	c #3576DC",
"]	c #354CA1",
" .  .  +  .@@@####@@  @ $      .",
"  .. .@@@@@##%%%%%%%@@%@.+ + .. ",
"...  @##%%%%%%%%&&&%%#@%@   .  .",
".  $  @########%%%&&%%@&@ . * + ",
" +$  @@@@##%%%%%##%%%%@%#@@. .$+",
" +  @##%%%%%%%&&%%#%%###%%#@*  $",
"   .*@###%%%%%%%&%%##%#%#%%#@  .",
" *  *@@@######%%%%##%&%#%#@%@.. ",
". . @######%%%%%%###%%&#@%#@#@ .",
" . .$@#%%%%%%&&%###%#%%%@%%@@   ",
".*.  $@@#%%%%%###%%%%#%%@#%@ .. ",
".*    @#@@####%%%%#%%%#%@##%@.  ",
" .. . =-####%%%%%#%%%%#@#-@#@   ",
" .  . =-###%%%%##%%#%%###-=@ + .",
"  +  + =########%%##%####=  +$  ",
".  + +  @#@#####%#####@#@$+ $  .",
" . .   .;@@###########@@;.$ . * ",
" .   *.;>>@#@#######@#@>>;   .  ",
"   +  ;>,',@;@#@#@#@;@,',>;.   *",
" +$  .;),!');)@,@,@);)'!,);. $  ",
"+$  .. ;)));)'!!!!!');)));*   + ",
"$     ;>>;;),''!!!'',);;>>;.. $ ",
" . .  ;,>>;),,''''',,);>>,; *  .",
".   .;,',;;#>)),,,))>#;;,',; .  ",
" * *.=%&);;>#########>;;)&%=  . ",
"  .* =##=;>),~{{~{{~,)>;=##= .* ",
" .    ==.;>,)~]]]]]~),>; ==.   .",
"  $  + + .;>]{~;;;~{]>;  ..  .  ",
" +.  $+  . ;'~,; ;,~';  . *  + .",
"+$  . $... ;),); ;),);+   *.  + ",
"$ .   .  * ;,,);.;),,;  *.  . $ ",
"   . .. .  +;;; . ;;; ..  .  .. "};
