/* XPM */
static char * hero_left_xpm[] = {
"32 32 29 1",
" 	c #ACD62A",
".	c #A5CE2A",
"+	c #B9E236",
"@	c #4D3B39",
"#	c #705654",
"$	c #B3DD35",
"%	c #8F7772",
"&	c #B7A099",
"*	c #9FC529",
"=	c #D7906E",
"-	c #EEBE93",
";	c #534721",
">	c #FFE1AF",
",	c #D9D9DD",
"'	c #2E1E22",
")	c #D9D9D9",
"!	c #928A8C",
"~	c #F2F2F2",
"{	c #9D704C",
"]	c #5C2E00",
"^	c #FFFFFF",
"/	c #964F00",
"(	c #323234",
"_	c #767678",
":	c #B7B7BB",
"<	c #979799",
"[	c #545456",
"}	c #354CA1",
"|	c #3560BD",
" .  .  +  ..@@####@@    $      .",
"  .. .  @ @@%%%%%%##@@  .+ + .. ",
"...  . @#@#%&&&%%%%%##@@.   .  .",
".  $  .@@#%&&%%%%%%%%%#@@ . * + ",
" +$  .@@#%%%##%%%#######@@.. .$+",
" +   @%%##%#%%%%%%#@@@@@@#@ *  $",
"   .@%#@%@#%%&&&%%%%%%%%#@#@.  .",
" *  @#@%%@#%%%%%%%%%%###@##@ .. ",
". . @@#%##=#%%&%####@@@@#@##@  .",
" . .$@#%#=--#%%&&%%%%#@###@@.   ",
".*.  @##;----##%%%%##@##%%@  .. ",
".*    @#;--->>>##@@@@#%##%%@*.  ",
" .. . .@;-->;;;>###;;%%%#%%@    ",
" .  . .*;->>,')>>#;->;%%##%@ + .",
"  +  + *;->>!'~>>#-{>;%%#@#@+$  ",
".  + +  ;=>>]]^>>#>{-;#%#@@ $  .",
" . .   .;{->//>>>>-=;###@@$ . * ",
" .   *.  ;=->>>>>-==@###@    .  ",
"   +   .  ;{==---=={{@#@.  .   *",
" +$  . * . ;;;;;;;;(( @  .*. $  ",
"+$  .. * *.(_,:<<<__[(. . *   + ",
"$      .  (_<:,,:_:,:[(. . .. $ ",
" . .  +  .([[_<<<[<::_( *.  *  .",
".   . $ + ([_[[[[([[[(       .  ",
" * *.  .. (__####(_:<( .  +   . ",
"  .*  .  . ([<}<,;&<_($+ +$  .* ",
" .      . +([_}_:;%%#; $ $..   .",
"  $  + + .$+([}|[[;;;*   ..  .  ",
" +.  $+  . $ (_,:<_(    . *  + .",
"+$  . $...  . (___[(  +   *.  + ",
"$ .   .  *    (::<_( +  *.  . $ ",
"   . .. .  + ..(((( . ..  .  .. "};
