/* XPM */
static char * foot_xpm[] = {
"32 32 77 1",
" 	c None",
".	c #B98A6C",
"+	c #B48164",
"@	c #C6754E",
"#	c #A36752",
"$	c #BA704E",
"%	c #C58862",
"&	c #BE8565",
"*	c #A9684D",
"=	c #C4744C",
"-	c #B36846",
";	c #B26D4E",
">	c #BD8F70",
",	c #E0A576",
"'	c #E1A475",
")	c #E1A575",
"!	c #D79E71",
"~	c #C7946E",
"{	c #E3A674",
"]	c #E4A773",
"^	c #E5A773",
"/	c #E5A772",
"(	c #E3A775",
"_	c #E5A774",
":	c #D09B75",
"<	c #E3A776",
"[	c #E5A673",
"}	c #D0986F",
"|	c #DD915E",
"1	c #DC8C5A",
"2	c #B18366",
"3	c #E4A675",
"4	c #E6A571",
"5	c #E5A470",
"6	c #E5A672",
"7	c #E2A775",
"8	c #CB986F",
"9	c #CF9B71",
"0	c #CC9369",
"a	c #DDA476",
"b	c #E3A676",
"c	c #DB9162",
"d	c #DB8D5D",
"e	c #B77455",
"f	c #BE8969",
"g	c #C07E5C",
"h	c #C88259",
"i	c #B86F4D",
"j	c #A36753",
"k	c #C5744F",
"l	c #B57C5C",
"m	c #C67C55",
"n	c #B2886F",
"o	c #A26850",
"p	c #DCA272",
"q	c #CD9A74",
"r	c #B17052",
"s	c #D09B72",
"t	c #C59571",
"u	c #E2A473",
"v	c #CE9971",
"w	c #E6A673",
"x	c #DB8B58",
"y	c #DD8F5C",
"z	c #E5A671",
"A	c #E5A771",
"B	c #E5A675",
"C	c #E4A772",
"D	c #E3A773",
"E	c #CD996E",
"F	c #E0A675",
"G	c #CA8D65",
"H	c #CD9971",
"I	c #D18255",
"J	c #D1875A",
"K	c #DBA074",
"L	c #D59F75",
"                                ",
"                                ",
"        .                       ",
"       +@#$%&                   ",
"       *   =-                   ",
"      ;>,')!                    ",
"      ~{]^^/                    ",
"      (^^^^_:                   ",
"      <^^^[}                    ",
"      <^^|12                    ",
"      3/^45                     ",
"      ]^^^6                     ",
"      7^^^^8                    ",
"      9^^^/0                    ",
"       abcde            f       ",
"                    ghijkl      ",
"                     m  no+     ",
"                     p^[_qr     ",
"                     /^^]]s     ",
"                    tu^^^^(     ",
"                     vw^^^<     ",
"                      xy^^(     ",
"                      z^^AB     ",
"                      C^^^D     ",
"                     E^^^^F     ",
"                     Gz^^^H     ",
"                      IJKL      ",
"                                ",
"                                ",
"                                ",
"                                ",
"                                "};
