/* XPM */
static char * wall_xpm[] = {
"32 32 41 1",
" 	c #ACD62A",
".	c #A5CE2A",
"+	c #B9E236",
"@	c #353132",
"#	c #B3DD35",
"$	c #443F41",
"%	c #534D50",
"&	c #282526",
"*	c #6A6366",
"=	c #836949",
"-	c #8F7955",
";	c #9FC529",
">	c #9F906B",
",	c #5E4D3D",
"'	c #AE9E75",
")	c #564229",
"!	c #403019",
"~	c #644E32",
"{	c #755C3F",
"]	c #9CC228",
"^	c #9DC325",
"/	c #96BB23",
"(	c #9ABE27",
"_	c #92B622",
":	c #A0C726",
"<	c #9DC12D",
"[	c #96B825",
"}	c #7F9D1F",
"|	c #98BC2C",
"1	c #99C026",
"2	c #8CAF22",
"3	c #8BAA25",
"4	c #90B423",
"5	c #A6CF28",
"6	c #91B324",
"7	c #9CC327",
"8	c #8AAC22",
"9	c #89A928",
"0	c #86A724",
"a	c #9FC232",
"b	c #84A425",
" .  .  +  .. @@@@@@.    #      .",
"  .. .  # @@@$%%%%$&&&  .+ + .. ",
"...  . .@@*%$&&&&@@$$$&&.   .  .",
".  #  .@*$@&==----==&@$$& . ; + ",
" +#  .@*@&=->>>>>>>>-=&@$&.. .#+",
" +   @*@,,,,,,=,=,=,,,,,@$& ;  #",
"   .;@*,=->>>>'''>'''>'>-$& .  .",
" ;  )@*,=->>''''''''>'>>-$&! .. ",
". . )@$,,,,,===,,=,,,=,,,@&!+  .",
" . ))~@$,=->''''''''''>-*&)!!   ",
".;.)~{~@$%=->>'>'>>'>-**&)))!.. ",
".; ){={)@@$%$======%**@&!)))!.  ",
" .@~{=~{{~@@@$%%%%$@@&)))!))!&  ",
" .@~==)=--={)@@@@@&!))~))!)))& .",
"  $~={)----{)==={{~!)~~~)!)))&  ",
". $~=){----){-==={~~!~~~))!))& .",
" .@%{)=----)=--=={{~!~~~))!)@&] ",
" .@$%)=----)---=={{~!~~~))!$@&^ ",
"  )@$%$=---)---=={{~!~~~)@$@&!/(",
" +)~@$%%$=-)---=={{~!~)@$$@&)!_:",
"+#)~~@@$%%%$=--=={{~@$$$@@&))!<:",
"# [){)&@@$$$%%%%$%$%$@@&&&!)!}|:",
" . )~)~~&&@@@@@@@@&@&&&&))!)!__1",
".  !~~){{{~&@&&&&&&&&))))!))!2_:",
" ; 3!~)~{{{)~~~~~)))!~~))!)!}_45",
"  .;!)!~~{{!{{{{{~~)!~~))!)!_26 ",
" .   !)!~~~!~{{{~~~)!~))!)!2_/5.",
"  #  +&!)~~!)~~~~~))!)))!&2_/7  ",
" +.  #+&@)))!))))))!)))&&_8^5+ .",
"+#  . #.&@@)!))))))!)&&&/^(.  + ",
"# .   .  9&@@@@@@@@@&&0:(.  . # ",
"   . .. .  a&&&&&&&&b5..  .  .. "};
