/* XPM */
static char * fly01_xpm[] = {
"32 32 14 1",
" 	c #ACD62A",
".	c #A5CE2A",
"+	c #B9E236",
"@	c #9FC529",
"#	c #B3DD35",
"$	c #EECDA0",
"%	c #CAA46E",
"&	c #88767B",
"*	c #000000",
"=	c #C71F00",
"-	c #ECFFFF",
";	c #690C91",
">	c #9641C8",
",	c #5F4B55",
" .  .  +  ..  .  @ .    #      .",
"  .. .  # +     .  . @  .+ + .. ",
"...  . .   @ . +  .  .  .   .  .",
".  #  . @ .@ . # .+.  .   . @ + ",
" +#  .    .$    .  %#+ . @.. .#+",
" +   . ++  %$    @%% # + @. @  #",
"   .@ . #+ %%$. .%%%  #..   .  .",
" @  @. . #.%&$$%%%%%     .   .. ",
". . .  ...%&&$$$$$$%%. . #  +  .",
" . .#+   .%%&%**$%$$$*    +..   ",
".@.  #+ + %%%***$$%$%* .     .. ",
".@    #+  %%%**=$$$%$= . . .@.  ",
" .. . .  .%%%***$-$*-*.;.@.     ",
" .  . .> %%%%%%%*-**-%;; ;.  + .",
"  +  > >>%%%%%%*%%%%%%;&&;; +#  ",
".  +>>$$>%%%%%%%%%$$$%;&&&; #  .",
" . .>$$$$%%%%%%%$$$$$$&&&&; . @ ",
" .  >%$$&%%%%$$$$$$$$$$,,,&  .  ",
"   +%&&&&%%%$$$$$$$%$$$,,,,&   @",
" +#%&&&&&%%%$$$$$$$%%$$,,,,,&#  ",
"+#%&&&&&&%%%%%%$$$$$%$%,,,,,& + ",
"# %&&&&&&,%%%%%%$$$$%, .,,,,,&# ",
" %&&&&+  %,,%%%%%%%,,&  @. ,,& .",
".%& . # +$$$,,,,,,,,&&       &  ",
" % @.  ..$$$$     &&&& .  +   . ",
"  .@  .  %$%$.  .@&,&,#+ +#  .@ ",
" .      . $     .   &. # #..   .",
"  #  + + .#+  +    . @   ..  .  ",
" +.  #+  . # +.. +      . @  + .",
"+#  . #...  .  @  #+  +   @.  + ",
"# .   .  @    . .  # +  @.  . # ",
"   . .. .  + .. . . . ..  .  .. "};
