/* XPM */
static char * collectible_xpm[] = {
"32 32 45 1",
" 	c #ACD62A",
".	c #A5CE2A",
"+	c #B9E236",
"@	c #9FC529",
"#	c #B3DD35",
"$	c #AD8100",
"%	c #FFD500",
"&	c #E7AE13",
"*	c #CA9911",
"=	c #A8D129",
"-	c #A7D028",
";	c #AFD834",
">	c #96BB23",
",	c #97BC24",
"'	c #74570A",
")	c #93B722",
"!	c #8C6706",
"~	c #92B722",
"{	c #ADD633",
"]	c #9EC12D",
"^	c #93B823",
"/	c #94B923",
"(	c #9FC626",
"_	c #8DB022",
":	c #9DC325",
"<	c #94B925",
"[	c #92B525",
"}	c #ABD52A",
"|	c #97BB26",
"1	c #91B324",
"2	c #94B826",
"3	c #A5CD28",
"4	c #96BB25",
"5	c #97BD24",
"6	c #95BA25",
"7	c #9DC426",
"8	c #AAD329",
"9	c #9BC125",
"0	c #A5CE28",
"a	c #ADD432",
"b	c #A1C927",
"c	c #A0C829",
"d	c #98BE26",
"e	c #9EC329",
"f	c #AAD429",
" .  .  +  ..  .  @ .    #      .",
"  .. .  # +     .  . @  .+ + .. ",
"...  . .   @ . +  .  .  .   .  .",
".  #  . @ .@ . # .+.  .   . @ + ",
" +#  .    .     .   #+ . @.. .#+",
" +   . ++   +    @ . # + @. @  #",
"   .@ . #+ + @. .@.   #..   .  .",
" @  @. . #.+.@ .  ..     .   .. ",
". . .  ....  ..$$$$ @. . #  +  .",
" . .#+   .    $%&&*$@     +..   ",
".@.  #+ +  . $%&$$&*$. .     .. ",
".@    #+  .  $%$&&$*$  . . .@.  ",
" .. . $$$$=-;$%&**%*$$$$.@.     ",
" .  .$%&&*$>,'*%%%&$%&&*$ .  + .",
"  + $%&$$&*$)$!***$%&$$&*$  +#  ",
".  +$%$&&$*$)'*!!!$%$&&$*$+ #  .",
" . .$%&**%*$~~'***$%&**%*${ . @ ",
" .  '*%%%&$']^/''''*%%%&$'(  .  ",
"   + '***$'_$$$$/>$!***$!$:.   @",
" +#  .''''^$%&&*$<'*!!!!$'[. #  ",
"+#  ..}|(1$%&$$&*$$!***$!$2   + ",
"#      .  $%$&&$*$'*!!!!$'3.. # ",
" . .  +  .$%&**%*$>'***$'4  @  .",
".   . # + '*%%%&$'56''''78   .  ",
" @ @.  ..  '***$'90}=abc  +   . ",
"  .@  .  .  ''''de.   #+ +#  .@ ",
" .      . +  f0=.   .. # #..   .",
"  #  + + .#+  +    . @   ..  .  ",
" +.  #+  . # +.. +      . @  + .",
"+#  . #...  .  @  #+  +   @.  + ",
"# .   .  @    . .  # +  @.  . # ",
"   . .. .  + .. . . . ..  .  .. "};
