/* XPM */
static char * vader_right_c_xpm[] = {
"32 32 34 1",
" 	c #ACD62A",
".	c #A5CE2A",
"+	c #B9E236",
"@	c #9FC529",
"#	c #B3DD35",
"$	c #1D1D1D",
"%	c #282828",
"&	c #333333",
"*	c #343434",
"=	c #424242",
"-	c #6C6C6C",
";	c #ADADAD",
">	c #0C0C0C",
",	c #AD8100",
"'	c #FFD500",
")	c #CA9911",
"!	c #ADD633",
"~	c #74570A",
"{	c #E7AE13",
"]	c #9FC626",
"^	c #8C6706",
"/	c #9DC325",
"(	c #93B823",
"_	c #92B525",
":	c #ABD52A",
"<	c #97BB26",
"[	c #91B324",
"}	c #94B826",
"|	c #A5CD28",
"1	c #96BB25",
"2	c #9DC426",
"3	c #AAD329",
"4	c #A1C927",
"5	c #A0C829",
" .  .  +  ..  .  @ .    #      .",
"  .. .  # + $$$$$$$$$@  .+ + .. ",
"...  . .  $$%&*===*&%$$ .   .  .",
".  #  . @$%**=--;--=**%$  . @ + ",
" +#  .  $%**=--;;;--=**%$@.. .#+",
" +   . +$**==-------==**$@. @  #",
"   .@ .$%**==-------==**%$  .  .",
" @  @. $%**===-----===**%$   .. ",
". . .  $*****=======***%%$  +  .",
" . .#+$%*%*********;;;;-=&$..   ",
".@.  #$%*%%****%*;;$$$$$$$$  .. ",
".@    $%*%%$$%%*;$$>>>>>>. .@.  ",
" .. . $%*%$%=-%-$%>%==%>>@.     ",
" .  .,$%%%$**==-$%>%%%>%% .  + .",
"  + ,'$$%%$**=-%%$%>>>%$$,  +#  ",
".  +,$%*%$$**=-*%*$$$$$%$,+ #  .",
" . .,'$%**$==-$=*=*=*=%$),! . @ ",
" .  ~)'$$$$$$$%=%=%=%*${,~]  .  ",
"   + ~))),~$%$$$$$$$$$),^,/.   @",
" +#  .~~~~($$=*%$*==*%$^,~_. #  ",
"+#  ..:<][,$*==%$%%%%$$,^,}   + ",
"#      .  ,$*==$$$$$*%$^,~|.. # ",
" . .  +  .,$%**$$%=$*%$,~1  @  .",
".   . # + ~$$$$$$%*$$$~~23   .  ",
" @ @.  ..  $**=%$%*$%$45  +   . ",
"  .@  .  . $$$$$$%%$%$#+ +#  .@ ",
" .      . +$%***$%*$$. # #..   .",
"  #  + + .#$$$$$$%*$ @   ..  .  ",
" +.  #+  . # $$%$%*$    . @  + .",
"+#  . #...  .$%*$%=$  +   @.  + ",
"# .   .  @    $$$$$# +  @.  . # ",
"   . .. .  + .. . . . ..  .  .. "};
