/* XPM */
static char * vader_back_c_xpm[] = {
"32 32 23 1",
" 	c #ACD62A",
".	c #A5CE2A",
"+	c #B9E236",
"@	c #9FC529",
"#	c #B3DD35",
"$	c #1D1D1D",
"%	c #282828",
"&	c #333333",
"*	c #343434",
"=	c #424242",
"-	c #6C6C6C",
";	c #ADADAD",
">	c #AD8100",
",	c #FFD500",
"'	c #E7AE13",
")	c #CA9911",
"!	c #ADD633",
"~	c #74570A",
"{	c #9FC626",
"]	c #9DC325",
"^	c #92B525",
"/	c #ABD52A",
"(	c #94B826",
" .  .  +  ..  .  @ .    #      .",
"  .. .  # +     .  . @  .+ + .. ",
"...  . .   @$$$$$$$$$.  .   .  .",
".  #  . @ $$%&*===*&%$$   . @ + ",
" +#  .   $%**=--;--=**%$ @.. .#+",
" +   . +$%**=--;;;--=**%$@. @  #",
"   .@ . $**==-------==**$   .  .",
" @  @. $%**==-------==**%$   .. ",
". . .  $%**===-----===**%$  +  .",
" . .#+ $$%*===========*%$$+..   ",
".@.  #$%&$&&=========&*$&%$  .. ",
".@    $%%$&&&=======&&&$%%$.@.  ",
" .. . $%%$&&&&&&&&&&&&&$%*$     ",
" .  .>$=&%%&&&&&&&&&&&%%&=$  + .",
"  + >,'$=&%%&&&&&&&&&%%&=$  +#  ",
".  +>,>'$==&%%&&&&&%%&==$>+ #  .",
" . .>,'))$$=---------=$$)>! . @ ",
" .  ~),,,$%$$$$$$$$$$$%$>~{  .  ",
"   + ~))$%$%*%*===*%*%$%$>].   @",
" +#  .~$=*$%=*%%%%%*=%$*=$^. #  ",
"+#  ../$==$%*=======*%$==$(   + ",
"#     $*=*$%**=====**%$*=*$$. # ",
" . .  $**%$%*********%$%**$$@  .",
".   .$%$$$$%%*******%%$$$$%$ .  ",
" @ @.$%=*$$$$%%%%%%%$$$$*=%$  . ",
"  .@ $%*$.$*====*====*$$$*%$ .@ ",
" .    $$. $%*==*%*==*%$#$$$$   .",
"  #  + + .#$$%$$$$$%$$  $%*$ .  ",
" +.  #+  . $%%%$ $%%%$  $%*$ + .",
"+#  . #... $%*%$ $%*%$+ $%=$  + ",
"# .   .  @ $**%$.$%**$  @$$ . # ",
"   . .. .  +$$$ . $$$ ..  .  .. "};
