/* XPM */
static char * vader_left_c_xpm[] = {
"32 32 32 1",
" 	c #ACD62A",
".	c #A5CE2A",
"+	c #B9E236",
"@	c #9FC529",
"#	c #B3DD35",
"$	c #1D1D1D",
"%	c #282828",
"&	c #333333",
"*	c #343434",
"=	c #424242",
"-	c #6C6C6C",
";	c #ADADAD",
">	c #0C0C0C",
",	c #AD8100",
"'	c #FFD500",
")	c #E7AE13",
"!	c #CA9911",
"~	c #74570A",
"{	c #9FC626",
"]	c #8C6706",
"^	c #9DC325",
"/	c #92B525",
"(	c #ABD52A",
"_	c #97BB26",
":	c #91B324",
"<	c #94B826",
"[	c #A5CD28",
"}	c #96BB25",
"|	c #9DC426",
"1	c #AAD329",
"2	c #A1C927",
"3	c #A0C829",
" .  .  +  ..  .  @ .    #      .",
"  .. .  # + $$$$$$$$$@  .+ + .. ",
"...  . .  $$%&*===*&%$$ .   .  .",
".  #  . @$%**=--;--=**%$  . @ + ",
" +#  .  $%**=--;;;--=**%$@.. .#+",
" +   . +$**==-------==**$@. @  #",
"   .@ .$%**==-------==**%$  .  .",
" @  @. $%**===-----===**%$   .. ",
". . .  $%%***=======*****$  +  .",
" . .#+$&=-;;;;*********%*%$..   ",
".@.  #$$$$$$$$;;*%****%%*%$  .. ",
".@    #+>>>>>>$$;*%%$$%%*%$.@.  ",
" .. . ,,>>%==%>%$-%-=%$%*%$     ",
" .  .,')%%>%%%>%$-==**$%%%$  + .",
"  + ,'),$$%>>>%$%%-=**$%%$$ +#  ",
".  +,',)$%$$$$$*%*-=**$$%*%$#  .",
" . .,')!!$%=*=*=*=$-==$**%$ . @ ",
" .  ~!''')$*%=%=%=%$$$$$$${  .  ",
"   + ~!!!,~$$$$$$$$$%$!,],^.   @",
" +#  .~~~~$%*==*$%*=$$]],~/. #  ",
"+#  ..(_{:$$%%%%$%==*$!,],<   + ",
"#      .  $%*==*%$==*$]],~[.. # ",
" . .  +  .$%****%$**%$!,~}  @  .",
".   . # + ~$$$$$$$$$$$~~|1   .  ",
" @ @.  ..  $%*===$=**$23  +   . ",
"  .@  .  . $%%*==$**%$#+ +#  .@ ",
" .      . +$$%$%%%$$$. # #..   .",
"  #  + + .#$%$%=**%$ @   ..  .  ",
" +.  #+  . #$$$%%%$$    . @  + .",
"+#  . #...  . $***%$  +   @.  + ",
"# .   .  @    .$$$$# +  @.  . # ",
"   . .. .  + .. . . . ..  .  .. "};
